<svg width="846" height="860" viewBox="0 0 846 860" fill="none" xmlns="http://www.w3.org/2000/svg">
<path d="M0 860V430V0H846V860H0Z" fill="#28313B"/>
<path d="M343 23.4704C352.62 22.5904 367.02 21.5204 375 21.0804C382.98 20.6504 406.82 20.2404 428 20.1604C453.5 20.0604 472.91 20.5004 485.5 21.4604C495.95 22.2604 511.92 23.6104 521 24.4604C530.08 25.3104 540.65 26.4304 544.5 26.9404C548.35 27.4504 554.42 28.1504 558 28.4904C561.58 28.8304 571.48 30.2204 580 31.5704C588.52 32.9204 601.35 35.1804 608.5 36.5904C615.65 38.0104 629.6 40.9004 639.5 43.0404C649.4 45.1704 661.55 47.8704 666.5 49.0404C671.45 50.2104 682.92 53.1704 692 55.6204C701.08 58.0704 717.05 62.7804 727.5 66.0804C737.95 69.3904 751.67 73.9504 758 76.2104C764.33 78.4804 773.1 82.0004 777.5 84.0504C781.9 86.0904 788.25 89.7304 791.62 92.1304C794.98 94.5304 801.4 99.9904 805.87 104.25C810.34 108.51 816.08 114.81 818.61 118.25C821.15 121.69 825.02 128.32 827.21 133C829.4 137.68 832.31 144.43 833.67 148C835.03 151.57 836.79 158.78 837.57 164C838.74 171.84 838.99 196.43 838.99 304.5C838.99 382.52 838.59 440.96 837.99 449C837.44 456.43 836.3 467.68 835.46 474C834.63 480.32 832.84 491.57 831.5 499C830.16 506.43 827.05 520.15 824.6 529.5C822.14 538.85 818.57 551.23 816.67 557C814.77 562.77 811.41 572 809.2 577.5C806.99 583 802.15 594.02 798.45 602C794.74 609.98 788.48 622.35 784.53 629.5C780.57 636.65 772.8 649.25 767.26 657.5C761.72 665.75 754.78 675.71 751.84 679.64C748.9 683.56 743.1 690.99 738.95 696.14C734.79 701.29 723.54 713.41 713.95 723.07C704.35 732.74 692 744.48 686.5 749.15C681 753.83 672.67 760.59 668 764.18C663.33 767.77 656.35 772.92 652.5 775.64C648.65 778.35 639.65 784.2 632.5 788.63C625.35 793.07 615.45 798.96 610.5 801.74C605.55 804.52 597.45 808.8 592.5 811.27C587.55 813.73 578.1 818.11 571.5 820.98C564.9 823.86 553.42 828.47 546 831.22C538.58 833.97 529.13 837.32 525 838.66C520.88 840 511.65 842.63 504.5 844.5C497.35 846.37 485.43 849.06 478 850.48C470.57 851.89 458.88 853.71 452 854.52C445.13 855.34 435.23 856 430 856C424.77 856.01 415.55 855.53 409.5 854.95C403.45 854.36 394.45 853.22 389.5 852.4C384.55 851.59 373.98 849.55 366 847.87C358.02 846.19 344.52 842.8 336 840.33C327.48 837.87 311.95 832.45 301.5 828.31C291.05 824.16 276.2 817.75 268.5 814.06C260.8 810.37 247.98 803.62 240 799.05C232.03 794.48 219.88 787.07 213 782.58C206.13 778.09 196.01 771.06 190.51 766.96C185.02 762.86 176.25 755.98 171.01 751.67C165.78 747.37 155.04 737.47 147.15 729.67C139.26 721.88 129.34 711.67 125.11 707C120.88 702.33 114.5 694.9 110.93 690.5C107.36 686.1 102.17 679.35 99.3999 675.5C96.6199 671.65 92.1499 665.35 89.4599 661.5C86.7699 657.65 81.0499 648.65 76.7299 641.5C72.4099 634.35 65.5799 621.98 61.5399 614C57.5099 606.02 52.1999 594.77 49.7499 589C47.2999 583.23 42.9399 571.98 40.0499 564C37.1599 556.02 32.3899 540.05 29.4499 528.5C26.5099 516.95 23.1999 502.55 22.0899 496.5C20.9899 490.45 19.4099 480.32 18.5899 474C17.7699 467.68 16.5999 456.88 15.9799 450C15.1999 441.28 14.9699 396.19 15.5699 164.5L18.1899 155C19.6299 149.78 22.4799 141.9 24.5099 137.5C26.5399 133.1 30.9699 125.49 34.3499 120.59C37.7299 115.69 44.0999 108.16 48.4999 103.85C52.8999 99.5404 59.6499 93.9104 63.4999 91.3304C67.3499 88.7504 73.4199 85.3104 76.9999 83.7004C80.5799 82.0804 88.4499 78.9704 94.4999 76.7904C100.55 74.6004 111.58 70.8104 119 68.3704C126.42 65.9204 141.28 61.4804 152 58.4904C162.72 55.5104 180.72 50.8304 192 48.1004C203.28 45.3704 218.12 41.9504 225 40.5104C231.87 39.0704 248.07 36.1404 261 34.0004C273.93 31.8604 293.73 28.9804 305 27.5904C316.27 26.2104 333.37 24.3504 343 23.4704Z" fill="#31B6CE"/>
<path d="M126.5 207.45C129.8 206.48 136.32 205.41 141 205.07C145.68 204.73 226 204.41 319.5 204.35C413 204.29 493.77 204.61 499 205.05C505.6 205.6 511.09 206.8 517 208.98C521.67 210.7 528.42 214.06 532 216.45C535.58 218.84 540.56 222.98 543.09 225.65C545.61 228.32 550.01 234.1 552.87 238.5C555.73 242.9 558.71 248.53 559.5 251C560.28 253.47 561.45 258.65 562.1 262.5C562.8 266.66 563.05 273.96 562.72 280.5C562.42 286.55 561.42 293.98 560.5 297C559.58 300.02 556.73 306.32 554.17 310.98C550.81 317.08 547.1 321.86 532.41 336.5L541.25 357.5C546.12 369.05 554.17 388.63 559.15 401C564.13 413.38 568.72 424.74 569.35 426.26C569.98 427.78 570.95 428.86 571.5 428.67C572.05 428.47 576.02 419.58 580.31 408.91C584.61 398.23 592.64 378.25 598.16 364.5C603.68 350.75 610.19 334.77 612.63 329C615.07 323.23 617.72 317.15 618.52 315.5C619.31 313.85 625.19 299.45 631.59 283.5C637.98 267.55 644.74 251.46 646.61 247.75C648.47 244.04 650.37 240.89 650.82 240.75C651.27 240.61 653.45 237.8 655.67 234.5C657.88 231.2 661.9 226.55 664.6 224.17C667.29 221.79 671.98 218.2 675 216.2C678.02 214.2 682.98 211.56 686 210.33C689.02 209.11 694.42 207.32 698 206.35C702.42 205.16 708.34 204.58 716.5 204.55C723.37 204.52 730.85 205.08 734 205.85C737.02 206.6 743.1 208.94 747.5 211.05C751.9 213.17 758.09 216.94 761.25 219.45C764.41 221.95 769.26 227.04 772.02 230.75C774.78 234.46 778.61 240.65 780.53 244.5C782.46 248.35 784.74 254.87 785.61 259C786.78 264.52 787.08 269.93 786.73 279.5C786.35 290.08 785.79 293.8 783.74 299.5C782.35 303.35 778.21 313.7 774.53 322.5C770.85 331.3 767.47 339.62 767 341C766.54 342.37 764.05 348.45 761.48 354.5C758.9 360.55 755.12 369.55 753.07 374.5C751.02 379.45 744.03 396.32 737.52 412C731.02 427.68 724.02 444.77 721.97 450C719.92 455.23 716.19 464.23 713.7 470C711.2 475.77 704.33 492.2 698.44 506.5C692.55 520.8 685.72 537.45 683.25 543.5C680.79 549.55 676.75 559.45 674.29 565.5C671.82 571.55 667.64 581.9 665 588.5C662.36 595.1 658.54 604.33 656.51 609C654.49 613.67 650.98 620.65 648.71 624.5C646.44 628.35 641.19 635.05 637.04 639.38C632.89 643.71 627.02 648.94 624 650.99C620.98 653.05 615.8 656.08 612.5 657.75C609.2 659.41 602.9 661.9 598.5 663.28C594.1 664.67 586.23 666.32 581 666.95C575.77 667.59 568.58 667.82 565 667.46C561.42 667.11 554.45 665.89 549.5 664.74C543.83 663.43 536.99 660.85 531 657.77C525.77 655.08 519.07 651 516.1 648.69C513.13 646.39 508.48 642.02 505.78 639C503.07 635.98 498.49 629.67 495.59 625C492.7 620.33 488.05 611.33 485.26 605C482.47 598.67 475.62 582.48 470.03 569C464.45 555.52 457.46 538.87 454.5 532C451.55 525.12 447.48 515.45 445.46 510.5C443.44 505.55 438.42 493.18 434.3 483C430.19 472.82 426.12 463.15 425.25 461.5C424.39 459.85 420.57 450.85 416.76 441.5C412.94 432.15 406.74 416.4 396.1 388.5L395.47 601.5L393.1 610C391.8 614.67 388.88 622.29 386.62 626.93C383.65 633.02 380.41 637.57 375 643.31C369.93 648.68 364.91 652.77 359.5 655.93C355.1 658.5 349.48 661.36 347 662.29C344.52 663.22 339.35 664.66 335.5 665.48C331.65 666.3 324.11 666.97 318.75 666.98C313.39 666.99 305.74 666.37 301.75 665.59C297.76 664.82 292.48 663.39 290 662.41C287.52 661.43 282.43 658.8 278.67 656.56C274.91 654.33 269.33 650.25 266.27 647.5C263.2 644.75 258.77 639.8 256.42 636.5C254.07 633.2 250.78 627.58 249.1 624C247.42 620.42 245.03 613.9 241.54 601.5L240.5 349.07L188.5 348.7C143.51 348.38 135.49 348.1 129 346.59C124.87 345.64 118.35 343.36 114.5 341.54C110.65 339.71 104.58 335.89 101 333.03C97.4198 330.18 92.0698 324.62 89.0998 320.67C86.1298 316.73 82.3998 310.57 80.7998 307C79.1998 303.43 77.2098 297.8 76.3698 294.5C75.5298 291.2 74.5798 284.9 74.2698 280.5C73.9298 275.85 74.1998 269.78 74.8998 266C75.5698 262.43 77.0798 256.35 78.2698 252.5C79.5698 248.3 82.6898 242.1 86.0798 237C89.1798 232.32 94.3698 226.1 97.6098 223.16C100.85 220.23 107.33 215.89 112 213.52C116.67 211.15 123.2 208.42 126.5 207.45Z" fill="#28313B"/>
<path d="M137 240.17C139.47 239.54 143.07 238.87 145 238.67C146.93 238.48 225 238.26 318.5 238.19C463.49 238.09 489.68 238.28 496.5 239.53C500.9 240.33 506.3 241.87 508.5 242.94C510.7 244.02 514.89 247.28 517.81 250.2C521.26 253.64 523.88 257.43 525.28 261C526.96 265.3 527.44 268.68 527.46 276.5C527.48 285.08 527.13 287.27 524.99 291.91C523.43 295.29 520.25 299.43 516.5 302.95C512.69 306.53 508.49 309.36 505 310.7C501.98 311.86 496.01 313.3 491.75 313.9C486.8 314.6 461.76 315 361 315L360.75 333.75C360.61 344.06 360.34 408.08 360.14 476C359.8 595.03 359.72 599.7 357.85 605C356.79 608.03 354.87 612.3 353.6 614.5C352.32 616.7 349.3 620.21 346.89 622.3C344.48 624.4 340.25 627.19 337.5 628.51C334.75 629.83 329.35 631.44 325.5 632.08C320.25 632.96 316.81 632.97 311.75 632.13C308.04 631.51 302.64 629.8 299.75 628.34C296.86 626.87 292.48 623.78 290 621.46C287.04 618.69 284.13 614.38 277.5 600.5L276.5 314.8L209.5 314.65C143.96 314.5 142.38 314.45 137 312.39C133.97 311.24 129.59 309.32 127.25 308.14C124.91 306.96 120.96 303.86 118.46 301.25C115.95 298.62 113.09 294.27 112.05 291.5C111.02 288.75 109.88 283.8 109.5 280.5C109.03 276.32 109.32 272.37 110.46 267.5C111.36 263.65 113.15 258.7 114.43 256.5C115.72 254.3 118.28 251 120.13 249.16C121.99 247.32 125.53 244.81 128 243.57C130.47 242.33 134.53 240.8 137 240.17Z" fill="#EE953C"/>
<path d="M695 243.7C696.92 242.54 700.98 240.77 704 239.78C708.13 238.43 711.5 238.09 717.5 238.44C723.71 238.8 726.84 239.56 731.5 241.85C735.35 243.75 739.41 246.9 742.82 250.65C745.94 254.08 748.89 258.57 749.95 261.5C750.95 264.25 752.07 268.75 752.45 271.5C752.9 274.8 752.6 278.8 751.57 283.25C750.71 286.96 745.2 301.81 739.34 316.25C733.48 330.69 725.64 349.93 721.91 359C718.19 368.08 713.06 380.45 710.52 386.5C707.98 392.55 701.24 408.98 695.54 423C689.83 437.02 684.17 450.75 682.96 453.5C681.74 456.25 677.84 465.48 674.28 474C670.72 482.52 665.14 496.25 661.87 504.5C658.6 512.75 654.33 523.33 652.37 528C650.42 532.67 645.74 543.92 641.98 553C638.21 562.08 632.17 576.7 628.54 585.5C624.91 594.3 620.5 603.89 618.72 606.82C616.95 609.75 613.02 614.59 610 617.59C606.98 620.58 601.58 624.56 598 626.43C594.42 628.3 588.8 630.53 585.5 631.4C582.2 632.26 576.12 632.97 572 632.99C567.87 633 561.8 632.31 558.5 631.46C555.2 630.61 550.25 628.75 547.5 627.31C544.75 625.88 540.07 622.86 537.1 620.6C534.12 618.35 530.15 614.48 528.27 612C526.39 609.53 522.94 603.45 520.6 598.5C518.26 593.55 515.37 587.02 514.17 584C512.98 580.98 507 566.35 500.88 551.5C494.77 536.65 485.73 514.6 480.79 502.5C475.86 490.4 468.65 473.08 464.78 464C460.9 454.93 454.82 440.53 451.27 432C447.71 423.48 440.5 405.93 435.25 393C429.99 380.08 423.96 365.23 421.83 360C419.71 354.78 417.98 350.16 417.99 349.75C417.99 349.34 427.56 348.99 439.25 348.99C457.22 348.98 461.74 349.29 468.5 350.98C472.9 352.09 480.1 354.77 484.5 356.96C488.9 359.14 494.73 362.63 497.45 364.71C500.18 366.8 504.6 371.2 507.28 374.5C509.96 377.8 514.11 384.55 516.5 389.5C518.89 394.45 523.86 405.93 527.54 415C531.22 424.08 536.71 437.58 539.74 445C542.78 452.43 546.97 462.78 549.05 468C551.14 473.23 556.19 485.6 560.28 495.5C564.36 505.4 568.56 515.2 569.6 517.27C570.65 519.35 571.73 521.01 572 520.98C572.27 520.95 575.95 512.27 580.17 501.71C584.39 491.14 593.09 469.68 599.49 454C605.9 438.33 617.25 410.43 624.71 392C632.18 373.58 644.91 342.08 653.02 322C661.12 301.93 669.54 281.45 671.74 276.5C673.93 271.55 676.98 265.03 678.52 262C680.06 258.98 683.61 254.1 686.41 251.16C689.21 248.23 693.08 244.87 695 243.7Z" fill="#EE953C"/>
</svg>
